<svg width="119" height="40" viewBox="0 0 119 40" fill="none" xmlns="http://www.w3.org/2000/svg">
<path d="M5.64 6.64H12.38V9.16H5.64V6.64ZM5.88 12.4H13.5V15H2.66V0.999999H13.24V3.6H5.88V12.4ZM22.778 15.24C21.698 15.24 20.6913 15.0667 19.758 14.72C18.838 14.36 18.038 13.8533 17.358 13.2C16.678 12.5467 16.1446 11.78 15.758 10.9C15.3846 10.02 15.198 9.05333 15.198 8C15.198 6.94667 15.3846 5.98 15.758 5.1C16.1446 4.22 16.678 3.45333 17.358 2.8C18.0513 2.14667 18.858 1.64667 19.778 1.3C20.698 0.939999 21.7046 0.76 22.798 0.76C24.0113 0.76 25.1046 0.973333 26.078 1.4C27.0646 1.81333 27.8913 2.42667 28.558 3.24L26.478 5.16C25.998 4.61333 25.4646 4.20667 24.878 3.94C24.2913 3.66 23.6513 3.52 22.958 3.52C22.3046 3.52 21.7046 3.62667 21.158 3.84C20.6113 4.05333 20.138 4.36 19.738 4.76C19.338 5.16 19.0246 5.63333 18.798 6.18C18.5846 6.72667 18.478 7.33333 18.478 8C18.478 8.66667 18.5846 9.27333 18.798 9.82C19.0246 10.3667 19.338 10.84 19.738 11.24C20.138 11.64 20.6113 11.9467 21.158 12.16C21.7046 12.3733 22.3046 12.48 22.958 12.48C23.6513 12.48 24.2913 12.3467 24.878 12.08C25.4646 11.8 25.998 11.38 26.478 10.82L28.558 12.74C27.8913 13.5533 27.0646 14.1733 26.078 14.6C25.1046 15.0267 24.0046 15.24 22.778 15.24ZM37.253 15.24C36.1463 15.24 35.1196 15.06 34.173 14.7C33.2396 14.34 32.4263 13.8333 31.733 13.18C31.053 12.5267 30.5196 11.76 30.133 10.88C29.7596 10 29.573 9.04 29.573 8C29.573 6.96 29.7596 6 30.133 5.12C30.5196 4.24 31.0596 3.47333 31.753 2.82C32.4463 2.16667 33.2596 1.66 34.193 1.3C35.1263 0.939999 36.1396 0.76 37.233 0.76C38.3396 0.76 39.353 0.939999 40.273 1.3C41.2063 1.66 42.013 2.16667 42.693 2.82C43.3863 3.47333 43.9263 4.24 44.313 5.12C44.6996 5.98667 44.893 6.94667 44.893 8C44.893 9.04 44.6996 10.0067 44.313 10.9C43.9263 11.78 43.3863 12.5467 42.693 13.2C42.013 13.84 41.2063 14.34 40.273 14.7C39.353 15.06 38.3463 15.24 37.253 15.24ZM37.233 12.48C37.8596 12.48 38.433 12.3733 38.953 12.16C39.4863 11.9467 39.953 11.64 40.353 11.24C40.753 10.84 41.0596 10.3667 41.273 9.82C41.4996 9.27333 41.613 8.66667 41.613 8C41.613 7.33333 41.4996 6.72667 41.273 6.18C41.0596 5.63333 40.753 5.16 40.353 4.76C39.9663 4.36 39.5063 4.05333 38.973 3.84C38.4396 3.62667 37.8596 3.52 37.233 3.52C36.6063 3.52 36.0263 3.62667 35.493 3.84C34.973 4.05333 34.513 4.36 34.113 4.76C33.713 5.16 33.3996 5.63333 33.173 6.18C32.9596 6.72667 32.853 7.33333 32.853 8C32.853 8.65333 32.9596 9.26 33.173 9.82C33.3996 10.3667 33.7063 10.84 34.093 11.24C34.493 11.64 34.9596 11.9467 35.493 12.16C36.0263 12.3733 36.6063 12.48 37.233 12.48ZM47.328 15V0.999999H50.008L58.268 11.08H56.968V0.999999H60.168V15H57.508L49.228 4.92H50.528V15H47.328ZM70.2803 15.24C69.1736 15.24 68.147 15.06 67.2003 14.7C66.267 14.34 65.4536 13.8333 64.7603 13.18C64.0803 12.5267 63.547 11.76 63.1603 10.88C62.787 10 62.6003 9.04 62.6003 8C62.6003 6.96 62.787 6 63.1603 5.12C63.547 4.24 64.087 3.47333 64.7803 2.82C65.4736 2.16667 66.287 1.66 67.2203 1.3C68.1536 0.939999 69.167 0.76 70.2603 0.76C71.367 0.76 72.3803 0.939999 73.3003 1.3C74.2336 1.66 75.0403 2.16667 75.7203 2.82C76.4136 3.47333 76.9536 4.24 77.3403 5.12C77.727 5.98667 77.9203 6.94667 77.9203 8C77.9203 9.04 77.727 10.0067 77.3403 10.9C76.9536 11.78 76.4136 12.5467 75.7203 13.2C75.0403 13.84 74.2336 14.34 73.3003 14.7C72.3803 15.06 71.3736 15.24 70.2803 15.24ZM70.2603 12.48C70.887 12.48 71.4603 12.3733 71.9803 12.16C72.5136 11.9467 72.9803 11.64 73.3803 11.24C73.7803 10.84 74.087 10.3667 74.3003 9.82C74.527 9.27333 74.6403 8.66667 74.6403 8C74.6403 7.33333 74.527 6.72667 74.3003 6.18C74.087 5.63333 73.7803 5.16 73.3803 4.76C72.9936 4.36 72.5336 4.05333 72.0003 3.84C71.467 3.62667 70.887 3.52 70.2603 3.52C69.6336 3.52 69.0536 3.62667 68.5203 3.84C68.0003 4.05333 67.5403 4.36 67.1403 4.76C66.7403 5.16 66.427 5.63333 66.2003 6.18C65.987 6.72667 65.8803 7.33333 65.8803 8C65.8803 8.65333 65.987 9.26 66.2003 9.82C66.427 10.3667 66.7336 10.84 67.1203 11.24C67.5203 11.64 67.987 11.9467 68.5203 12.16C69.0536 12.3733 69.6336 12.48 70.2603 12.48ZM80.3553 15V0.999999H83.0353L88.9953 10.88H87.5753L93.4353 0.999999H96.0953L96.1353 15H93.0953L93.0753 5.66H93.6353L88.9553 13.52H87.4953L82.7153 5.66H83.3953V15H80.3553ZM99.4569 15V0.999999H102.697V15H99.4569ZM112.719 15.24C111.639 15.24 110.633 15.0667 109.699 14.72C108.779 14.36 107.979 13.8533 107.299 13.2C106.619 12.5467 106.086 11.78 105.699 10.9C105.326 10.02 105.139 9.05333 105.139 8C105.139 6.94667 105.326 5.98 105.699 5.1C106.086 4.22 106.619 3.45333 107.299 2.8C107.993 2.14667 108.799 1.64667 109.719 1.3C110.639 0.939999 111.646 0.76 112.739 0.76C113.953 0.76 115.046 0.973333 116.019 1.4C117.006 1.81333 117.833 2.42667 118.499 3.24L116.419 5.16C115.939 4.61333 115.406 4.20667 114.819 3.94C114.233 3.66 113.593 3.52 112.899 3.52C112.246 3.52 111.646 3.62667 111.099 3.84C110.553 4.05333 110.079 4.36 109.679 4.76C109.279 5.16 108.966 5.63333 108.739 6.18C108.526 6.72667 108.419 7.33333 108.419 8C108.419 8.66667 108.526 9.27333 108.739 9.82C108.966 10.3667 109.279 10.84 109.679 11.24C110.079 11.64 110.553 11.9467 111.099 12.16C111.646 12.3733 112.246 12.48 112.899 12.48C113.593 12.48 114.233 12.3467 114.819 12.08C115.406 11.8 115.939 11.38 116.419 10.82L118.499 12.74C117.833 13.5533 117.006 14.1733 116.019 14.6C115.046 15.0267 113.946 15.24 112.719 15.24ZM0.82 39L7.06 25H10.26L16.52 39H13.12L8 26.64H9.28L4.14 39H0.82ZM3.94 36L4.8 33.54H12L12.88 36H3.94ZM17.9725 39V25H20.6525L28.9125 35.08H27.6125V25H30.8125V39H28.1525L19.8725 28.92H21.1725V39H17.9725ZM32.2848 39L38.5248 25H41.7248L47.9848 39H44.5848L39.4648 26.64H40.7448L35.6048 39H32.2848ZM35.4048 36L36.2648 33.54H43.4648L44.3448 36H35.4048ZM49.4373 39V25H52.6773V36.36H59.6973V39H49.4373ZM63.5423 39V33.28L64.2823 35.24L58.1223 25H61.5623L66.2823 32.86H64.3023L69.0423 25H72.2223L66.0623 35.24L66.7823 33.28V39H63.5423ZM76.2241 39V27.64H71.7441V25H83.9441V27.64H79.4641V39H76.2241ZM85.6873 39V25H88.9273V39H85.6873ZM98.9498 39.24C97.8698 39.24 96.8632 39.0667 95.9298 38.72C95.0098 38.36 94.2098 37.8533 93.5298 37.2C92.8498 36.5467 92.3165 35.78 91.9298 34.9C91.5565 34.02 91.3698 33.0533 91.3698 32C91.3698 30.9467 91.5565 29.98 91.9298 29.1C92.3165 28.22 92.8498 27.4533 93.5298 26.8C94.2232 26.1467 95.0298 25.6467 95.9498 25.3C96.8698 24.94 97.8765 24.76 98.9698 24.76C100.183 24.76 101.277 24.9733 102.25 25.4C103.237 25.8133 104.063 26.4267 104.73 27.24L102.65 29.16C102.17 28.6133 101.637 28.2067 101.05 27.94C100.463 27.66 99.8232 27.52 99.1298 27.52C98.4765 27.52 97.8765 27.6267 97.3298 27.84C96.7832 28.0533 96.3098 28.36 95.9098 28.76C95.5098 29.16 95.1965 29.6333 94.9698 30.18C94.7565 30.7267 94.6498 31.3333 94.6498 32C94.6498 32.6667 94.7565 33.2733 94.9698 33.82C95.1965 34.3667 95.5098 34.84 95.9098 35.24C96.3098 35.64 96.7832 35.9467 97.3298 36.16C97.8765 36.3733 98.4765 36.48 99.1298 36.48C99.8232 36.48 100.463 36.3467 101.05 36.08C101.637 35.8 102.17 35.38 102.65 34.82L104.73 36.74C104.063 37.5533 103.237 38.1733 102.25 38.6C101.277 39.0267 100.177 39.24 98.9498 39.24ZM111.44 39.24C110.32 39.24 109.246 39.0933 108.22 38.8C107.193 38.4933 106.366 38.1 105.74 37.62L106.84 35.18C107.44 35.6067 108.146 35.96 108.96 36.24C109.786 36.5067 110.62 36.64 111.46 36.64C112.1 36.64 112.613 36.58 113 36.46C113.4 36.3267 113.693 36.1467 113.88 35.92C114.066 35.6933 114.16 35.4333 114.16 35.14C114.16 34.7667 114.013 34.4733 113.72 34.26C113.426 34.0333 113.04 33.8533 112.56 33.72C112.08 33.5733 111.546 33.44 110.96 33.32C110.386 33.1867 109.806 33.0267 109.22 32.84C108.646 32.6533 108.12 32.4133 107.64 32.12C107.16 31.8267 106.766 31.44 106.46 30.96C106.166 30.48 106.02 29.8667 106.02 29.12C106.02 28.32 106.233 27.5933 106.66 26.94C107.1 26.2733 107.753 25.7467 108.62 25.36C109.5 24.96 110.6 24.76 111.92 24.76C112.8 24.76 113.666 24.8667 114.52 25.08C115.373 25.28 116.126 25.5867 116.78 26L115.78 28.46C115.126 28.0867 114.473 27.8133 113.82 27.64C113.166 27.4533 112.526 27.36 111.9 27.36C111.273 27.36 110.76 27.4333 110.36 27.58C109.96 27.7267 109.673 27.92 109.5 28.16C109.326 28.3867 109.24 28.6533 109.24 28.96C109.24 29.32 109.386 29.6133 109.68 29.84C109.973 30.0533 110.36 30.2267 110.84 30.36C111.32 30.4933 111.846 30.6267 112.42 30.76C113.006 30.8933 113.586 31.0467 114.16 31.22C114.746 31.3933 115.28 31.6267 115.76 31.92C116.24 32.2133 116.626 32.6 116.92 33.08C117.226 33.56 117.38 34.1667 117.38 34.9C117.38 35.6867 117.16 36.4067 116.72 37.06C116.28 37.7133 115.62 38.24 114.74 38.64C113.873 39.04 112.773 39.24 111.44 39.24Z" fill="white"/>
</svg>
